<?xml version="1.0" encoding="UTF-8"?>
<svg id="Layer_1" data-name="Layer 1" xmlns="http://www.w3.org/2000/svg" viewBox="0 0 28.98 29.92">
  <path d="M16.2,0c-.01.22-.03.44-.06.66-.11.79-.21,1.59-.34,2.38-.12.71-.25,1.43-.4,2.13-.53,2.42-1.38,4.73-2.53,6.93-.5.97-1.1,1.88-1.72,2.78-.4.58-.81,1.15-1.23,1.74.37.43.75.87,1.14,1.32.53-2.91,1.98-5.18,4.55-6.66,1.54-.89,3.22-1.23,4.99-1.12,4.43.27,7.9,3.88,8.33,8.09.43,4.19-2.09,8.15-6.21,9.49-2.21.72-4.39.56-6.5-.41-2.1-.97-3.61-2.55-4.56-4.65-.25.12-.49.24-.74.36-.09.04-.18.07-.28.09-.15.04-.21,0-.18-.14.04-.25.09-.5.16-.75.03-.11.02-.16-.08-.21-1.17-.56-2.34-1.13-3.51-1.69-.1-.05-.32.08-.33.2-.01.38-.16.72-.37,1.03-.3.46-.6.92-.92,1.37-.3.42-.5.88-.55,1.39-.07.75.21,1.39.66,1.97.61.79,1.44,1.26,2.36,1.59,1.04.37,2.12.55,3.22.61.65.03,1.3.06,1.94.02.62-.04,1.24-.17,1.86-.26.26-.04.52-.1.79-.13.17-.02.33.02.51.12-.06.04-.1.07-.14.1-.89.6-1.88.95-2.92,1.17-.86.19-1.72.31-2.6.35-.05,0-.1.02-.14.05-.49.01-.99.01-1.49,0-.05-.02-.09-.04-.14-.05-.62-.03-1.24-.14-1.84-.29-1.18-.29-2.19-.87-3-1.79-.78-.88-1.24-1.92-1.4-3.09-.07-.52-.09-1.03,0-1.55.03-.19.05-.39.07-.59-.01,0-.02-.02-.04-.03-.07.08-.16.14-.22.23-.1.13-.17.29-.28.41-.4.43-.81.86-1.24,1.26-.19.18-.44.3-.66.44-.08.05-.14.03-.15-.08,0-.15-.03-.31-.03-.46-.02-.75.03-1.49.19-2.23.12-.57.28-1.12.57-1.63.32-.57.89-.86,1.47-.71.22.06.42.19.65.3-.03.01-.02.01,0,0,.64-.64,1.28-1.28,1.93-1.91.02-.02.04-.06.04-.09.04-.17.08-.34.12-.51,0-.04,0-.09,0-.14-.11-.43-.22-.87-.32-1.3-.07-.28-.13-.56-.2-.85-.03.02-.05.03-.07.04-.27.14-.46.18-.45-.27,0-.72.1-1.42.24-2.12.12-.59.26-1.18.57-1.72.17-.29.38-.53.7-.62.71-.21,1.41.35,1.41,1.09,0,.37-.14.68-.33.98-.08.12-.07.2.07.26.02-.04.04-.08.06-.12.21-.48.42-.95.63-1.43.95-2.18,2.11-4.25,3.57-6.13,1.03-1.33,2.15-2.59,3.4-3.73.56-.51,1.11-1.04,1.76-1.44.01,0,.01-.03.02-.05h.19M19.94,13.03s-.08.02-.15.03c-.17.01-.34,0-.5.05-.2.06-.38.18-.56.27-.1.05-.22.08-.31-.01-.09-.09-.04-.2.01-.3.03-.06.06-.11.09-.17-.01-.01-.02-.02-.03-.04-.09.05-.18.1-.27.14-.15.06-.36.03-.4.27-.01.07-.14.11-.21.16.01,0,.03,0,.04,0-.02.16,0,.32-.05.46-.08.21-.19.41-.32.6-.05.07-.19.16-.24.14-.17-.07-.33-.02-.5-.02-.18,0-.37-.03-.55-.03-.06,0-.16,0-.19.04-.14.17-.31.18-.49.14-.17-.04-.28.01-.36.17-.06.13-.16.23-.31.24-.17.01-.3.1-.39.22-.11.15-.21.3-.32.45-.08.11-.19.16-.29.1-.11-.07-.13-.18-.09-.29.02-.06.07-.12.11-.17.09-.11.1-.2,0-.31-.09-.09-.18,0-.22.06-.18.24-.35.49-.53.74,0,0,0,.02.01.05.04,0,.09,0,.13,0,.31-.06.42-.01.54.27.04.08.05.18.04.27,0,.16,0,.29.17.38.09.05.13.15.09.25-.04.12-.14.14-.25.14-.41,0-.57-.2-.5-.59.01-.07.03-.13.03-.2,0-.08-.01-.16-.02-.25-.09.12-.16.24-.21.36-.02.04,0,.11.02.14.09.12.08.24.02.37-.08.18-.17.35-.25.53-.05.11-.06.22.06.31.02-.02.04-.03.06-.05.15-.14.19-.13.32.02.09.11.19.21.27.33.06.09.09.21.14.31.02.04.05.1.09.11.5.23.74.71.62,1.26-.08.37-.29.68-.54.96-.45.51-.97.94-1.53,1.33-.08.06-.1.11-.06.2.38.97,1.03,1.76,1.74,2.5-.01-.06-.03-.11-.07-.15-.31-.35-.51-.75-.65-1.2-.04-.14-.03-.32-.11-.43-.19-.25-.23-.54-.3-.83-.04-.19.02-.28.16-.39.45-.34.88-.72,1.21-1.18.13-.18.24-.38.36-.58.05.03.1.05.15.08.19.13.35.26.3.53,0,.04.05.12.1.15.38.25.77.49.98.93,0,.02.02.03.04.04.19.18.22.41.06.62-.1.14-.21.27-.33.41.09.12.07.23-.02.35-.02.03-.02.09-.01.13.05.26-.18.45-.44.41-.19-.03-.4,0-.63.01.21.17.22.26.03.41-.07.06-.15.1-.23.15-.11.06-.25.26-.21.34.13.24.23.5.5.61.11.05.22.1.32.16.1.07.13.16,0,.26-.02,0-.05.01-.1.02-.03,0-.06,0-.1-.03-.1-.07-.21-.14-.31-.2l-.03.05c.12.07.23.15.37.23.13.09.26.19.4.27.85.55,1.76.96,2.77,1.21.27.05.54.1.81.15-.02-.04-.05-.06-.08-.07-.25-.05-.5-.1-.77-.15-.05-.01-.1-.01-.14-.04-.04-.02-.06-.07-.09-.1.04-.03.07-.08.12-.08.1-.02.2-.02.3-.02.35.01.7.03,1.05.04.73.03,1.46,0,2.19-.08.14-.01.28-.04.43-.05.18-.02.36-.02.53-.04.24-.04.48-.1.71-.14.03,0,.07.02.1.03-.01.03-.02.08-.05.1-.04.04-.09.07-.14.11.06.01.1,0,.15-.01.26-.11.53-.22.78-.35,1.11-.55,2.06-1.3,2.81-2.29.74-.98,1.23-2.07,1.51-3.26.17-.73.31-1.47.24-2.22-.02-.21-.07-.43-.15-.63-.08-.19-.22-.35-.31-.54-.09-.18-.21-.33-.38-.46-.1.21-.27.22-.46.19-.14-.02-.29-.02-.42.01-.21.05-.38.03-.54-.12-.08-.08-.17-.1-.31-.03.22.19.41.37.69.42.04,0,.09-.06.13-.09.05-.04.1-.12.16-.13.37-.05.7.29.63.66-.1.51-.42.91-.75,1.3-.16.18-.32.36-.42.57.22-.08.46-.12.59-.34.02-.04.07-.08.11-.09.06-.02.13-.02.19-.03,0,.06.02.13.01.19-.02.13-.08.25-.09.38-.02.4-.14.76-.42,1.06-.23.25-.44.52-.65.78-.11.13-.19.28-.18.46.01.19,0,.39.03.58.06.41-.04.74-.41.96-.12.07-.25.14-.38.18-.28.09-.47.26-.53.56-.02.12-.09.23-.22.27-.13.04-.22.1-.3.22-.03.05-.1.09-.16.13-.09.05-.18.09-.27.15-.51.35-1.06.59-1.69.6-.15,0-.3.08-.45.09-.08,0-.19-.03-.23-.08-.04-.05-.02-.17.01-.24.05-.09.02-.12-.06-.15-.08-.03-.16-.05-.23-.08-.13-.07-.17-.22-.1-.33.12-.2.08-.34-.13-.45,0,0-.02,0-.03-.01-.17-.08-.21-.18-.14-.36.11-.26.2-.54.58-.58-.03-.05-.08-.07-.12-.1-.04-.03-.08-.08-.1-.12-.09-.14-.04-.26.13-.28.02,0,.04,0,.06-.01l.02-.04c-.12-.1-.24-.2-.36-.3-.07-.06-.16-.1-.21-.17-.23-.33-.23-.48.05-.7.07-.06.12-.14.18-.21.06-.08.04-.14-.03-.19-.13-.09-.27-.1-.42-.07-.11.02-.24.03-.29-.09-.04-.11-.12-.16-.21-.17-.16-.02-.33-.01-.49-.01-.15,0-.3.02-.45,0-.3-.04-.6-.11-.9-.17-.02,0-.05,0-.07-.02-.19-.2-.43-.37-.56-.6-.15-.27-.22-.6-.31-.9-.06-.22-.01-.43.16-.59.1-.09.14-.19.14-.32,0-.07.01-.14,0-.2,0-.12.04-.21.14-.29.07-.06.11-.16.17-.22.05-.05.11-.09.17-.13.02-.02.06-.02.09-.03,0-.01,0-.03,0-.04-.06-.03-.12-.06-.18-.09-.12-.06-.16-.17-.11-.25.05-.09.2-.11.3-.04.03.02.06.07.09.09.03.02.07.04.11.04.1,0,.19-.01.29-.01.14,0,.22-.05.25-.19.08-.35.39-.45.67-.59.03-.02.09,0,.13.01.25.11.49.05.75.02.34-.03.68-.04,1.02-.04.17,0,.28.09.29.23,0,.14.09.15.18.18.18.05.37.09.54.17.16.08.29.09.42-.03.15-.14.33-.15.5-.07.31.16.65.08.97.11.03,0,.08-.07.11-.12.02-.04.01-.09.01-.13.01-.22-.36-.54-.57-.5-.01,0-.03,0-.04.02-.15.1-.28.04-.39-.07-.08-.09-.14-.2-.22-.29-.03-.04-.09-.08-.14-.08-.03,0-.06.07-.09.11,0,.02,0,.04-.01.06-.04.17-.14.22-.29.13-.07-.04-.14-.1-.21-.16-.01.01-.03.02-.04.04-.18.24-.19.24-.41.03-.11-.1-.24-.21-.38-.25-.18-.05-.33-.13-.46-.26-.09-.1-.18-.09-.26,0-.12.15-.24.3-.37.45-.05.06-.11.12-.17.15-.17.07-.35.13-.53.17-.06.02-.14,0-.2-.02-.15-.06-.3-.14-.45-.22-.12-.06-.16-.17-.11-.3.06-.14.13-.28.22-.41.09-.14.21-.16.36-.1.09.04.18.08.27.11.11.04.22.04.28-.08.07-.13,0-.2-.11-.27-.16-.1-.17-.22-.04-.36.03-.03.07-.06.09-.08-.04-.1-.08-.18-.12-.27-.08.05-.15.09-.23.12-.1.05-.2.02-.24-.07-.03-.05-.02-.16.02-.21.1-.12.23-.23.35-.34.03-.03.05-.06.06-.09.07-.17.21-.26.36-.22.14.03.2.12.19.33,0,.17.07.28.19.39.09-.07.17-.15.26-.2.08-.05.08-.1.05-.18-.08-.17-.15-.35-.2-.53-.05-.18-.02-.22.16-.27.04-.01.11-.03.11-.05.02-.22.15-.37.28-.53.17-.21.28-.26.54-.17.14.05.29.07.44.09.15.01.21-.06.19-.23-.21.02-.34-.12-.45-.27-.07-.09-.1-.19-.01-.28.09-.09.18-.06.27,0,.06.04.12.06.19.09,0-.01.01-.02.02-.03-.03-.02-.05-.05-.08-.06-.17-.1-.3-.23-.44-.38-.09-.1-.26-.17-.41-.19-.33-.04-.4-.09-.44-.42-.02-.16.01-.2.17-.18.33.05.66.11.99.16.03,0,.06,0,.09,0-.03-.05-.07-.08-.12-.09-1.2-.37-2.44-.43-3.67-.24-1.51.23-2.86.85-4.03,1.83-1.82,1.53-2.78,3.52-3.05,5.86,0,.04-.01.09,0,.11.18.23.36.46.55.7.09-.09.17-.14.23-.22.04-.05.07-.12.06-.18-.05-.26-.12-.51-.17-.77-.02-.13-.05-.26-.02-.38.06-.29.14-.58.09-.89-.02-.09.01-.18.03-.27.14-.76.51-1.42.96-2.04.69-.95,1.56-1.7,2.56-2.28.44-.26.92-.44,1.39-.65.25-.12.51-.23.77-.34.1-.04.21-.05.31-.06.28-.03.57-.06.86-.07.06,0,.14.06.17.12.02.03-.05.11-.08.16-.01.02-.05.04-.07.05,0,.01,0,.03,0,.04.12,0,.24,0,.36,0,.25,0,.51,0,.75.04.16.03.31.15.35.32.05.16-.02.31-.14.44-.06.06-.12.12-.16.2-.11.22-.28.38-.49.52M6.12,17.91c-.23.67-.46,1.34-.7,2.01-.03.1-.02.15.08.17.26.06.53.11.79.17.09.02.14-.01.2-.07,1.07-1.12,2.04-2.31,2.97-3.54.98-1.3,1.89-2.65,2.74-4.04.01-.02.02-.05.04-.1-.88.44-1.75.47-2.61.06-.85-.41-1.46-1.03-1.65-2-.48.67-2.69,6.58-2.69,7.14.29-.28.59-.57.9-.86.07-.07.14-.15.22-.21.03-.02.07-.02.1-.04,0,.04.03.08.02.12,0,.04-.03.08-.04.12-.12.35-.25.7-.38,1.07M13.76,7.66c-.71,1.7-1.51,3.35-2.7,4.82.54-.03,1-.21,1.43-.46.04-.02.06-.07.09-.11.58-1.09,1.08-2.21,1.49-3.37.7-1.95,1.18-3.96,1.48-6.01,0-.06.02-.12.02-.17,0-.05,0-.1,0-.16-.5,1.85-1.08,3.67-1.82,5.46M6.23,21.05c.05-.15.09-.3.15-.48-.09,0-.14,0-.19,0-.25-.05-.51-.09-.75-.17-.22-.07-.33-.04-.45.16.11.03.22.05.32.1.21.09.33.27.31.47-.06.43-.33.72-.63,1.01-.03-.06-.05-.1-.07-.15-.27.26-.51.54-.93.65.08-.33.15-.62.22-.93-.07-.02-.07-.1-.03-.18.08-.16.15-.32.23-.49.02-.03.04-.07.05-.1-.01,0-.02-.01-.03-.02-.46.36-.95.7-1.27,1.21-.16.26-.22.55-.24.87.18-.08.3-.29.52-.19-.36.46-.46.97-.37,1.54.03.19.03.39.04.58,0,.03,0,.06,0,.09.28-.51.82-.81,1.01-1.36.23.04.2.25.32.41.07-.11.16-.19.18-.28.13-.5.41-.92.7-1.33.32-.44.58-.92.88-1.4M1.29,23.54c.48-.45.84-.99,1.19-1.59-.76.29-1.32.08-1.76-.55-.3,1-.41,2.02-.43,3.04.01,0,.03.02.04.03.32-.31.63-.61.96-.93M11.8,22.19c.53-.37,1.05-.77,1.52-1.23-.7-.08-1.07-.5-1.26-1.15-.51.96-.93,1.92-1.23,2.95.32-.19.63-.37.96-.57M4.67,12.2c-.24.92-.37,1.85-.43,2.8.59-.67.93-1.5,1.38-2.25-.15-.05-.28-.08-.38-.15-.17-.12-.33-.27-.49-.4-.02-.01-.05-.01-.08,0M8.21,20.53c.84.4,1.69.81,2.54,1.22.03-.08.05-.15.08-.22-.35-.17-.69-.34-1.03-.5-.63-.31-1.26-.61-1.88-.92-.17-.09-.17-.11-.09-.28.15-.33.31-.66.47-.99.02-.04.03-.08.05-.12,0,0-.02,0-.03-.01-.38.43-.75.87-1.15,1.32.35.17.69.33,1.05.51M10.84,18.48c.28.3.56.6.85.9.04.04.1.07.16.1.01-.02.03-.04.04-.06-.71-.84-1.42-1.69-2.13-2.53-.16.17-.16.17-.03.33.37.42.73.83,1.12,1.26M25.85,19.66l.19.07s.03-.03.04-.04c-.18-.27-.35-.55-.54-.8-.19-.25-.41-.47-.63-.7-.04-.04-.12-.06-.18-.09,0,.01-.01.02-.02.03.01.02.03.03.04.05.16.22.35.43.47.66.16.31.34.59.63.81M24.97,15.45c.22.17.46.33.53.63.03.12.13.17.25.16.05,0,.13-.02.14-.05.01-.04,0-.11-.04-.15-.12-.15-.2-.34-.4-.41-.03,0-.04-.05-.06-.08-.06-.06-.11-.12-.18-.16-.13-.07-.22-.15-.23-.31,0-.08-.06-.17-.09-.26-.22.25-.2.44.09.62M24.14,15.89c.11-.01.22-.03.35-.04-.17-.18-.35-.28-.56-.24s-.41.02-.62-.04c-.02,0-.05,0-.09,0,.05.13.1.25.14.37.04.1.1.12.21.09.17-.05.36-.08.56-.12M5.21,16.24c-.12-.45-.24-.89-.37-1.34-.02,0-.04,0-.06,0,0,.06-.03.13-.02.19.07.37.16.74.24,1.11.05.22.09.45.14.67.09-.2.22-.4.06-.64M17.01,12.64c-.14.06-.27.11-.33.26-.01.04.01.11.04.13.1.07.24.02.34-.07.13-.12.27-.23.41-.35.02-.02.06-.03.09-.04l-.04-.07c-.06,0-.12-.01-.17,0-.11.03-.22.07-.35.12M21.81,13.96c.01.21-.07.36-.27.47.12.05.24.08.35.09.15,0,.19-.05.15-.18-.04-.15-.09-.29.1-.41-.1-.01-.16-.03-.23-.03-.04,0-.07.03-.11.07M19.01,12.3c-.03.08-.06.15-.08.2.14-.13.29-.26.45-.4-.18-.13-.28-.1-.33.09,0,.03-.02.06-.03.1M25.64,14.99c.05.03.11.06.16.09l.04-.05c-.11-.14-.22-.27-.32-.41-.02.02-.05.03-.07.05.06.1.12.2.19.32M16.71,14.26l.16-.08s0-.03,0-.05c-.07-.01-.13-.04-.19-.03-.04,0-.07.07-.1.11.04.02.08.04.14.05M18,12.42c.15.07.25.03.34-.16-.13.05-.24.1-.34.16M4.48,20.92s0,0,0,0M5.27,17.78h0s0,0,0,0Z" style="fill: #231f20;"/>
</svg>